<svg id="af0f9077-82be-4973-8633-20d13ed54528" data-name="Layer 1" xmlns="http://www.w3.org/2000/svg" width="865.76" height="682.89" viewBox="0 0 865.76 682.89"><ellipse cx="427.73" cy="610.48" rx="207.28" ry="51.82" fill="#0071f2"/><ellipse cx="427.73" cy="610.48" rx="207.28" ry="51.82" fill="#fff" opacity="0.5"/><ellipse cx="441.71" cy="600.59" rx="181.03" ry="48.75" fill="#0071f2"/><ellipse cx="441.71" cy="600.59" rx="181.03" ry="48.75" fill="#fff" opacity="0.6"/><path d="M668.58,304.91c0,127-121.24,224-250.35,224-129.94,0-236.91-99.09-250.63-226.4C167.6,302.51,668.58,302.09,668.58,304.91Z" fill="#0071f2"/><path d="M669.49,295.74q.85-10.38.85-21c0-140.37-112.87-254.16-252.11-254.16S166.11,134.38,166.11,274.75q0,10.56.84,20.9Z" fill="#0071f2"/><path d="M668.58,304.91a197.75,197.75,0,0,1-1.78,26.49c-.06.39-.1.8-.17,1.19A193.33,193.33,0,0,1,661.28,358l-.33,1.2a201.76,201.76,0,0,1-9.51,26.14c-.18.41-.35.8-.54,1.19a209.9,209.9,0,0,1-14.11,26.16c-.25.41-.5.8-.76,1.19a225.2,225.2,0,0,1-20.24,26.85c-.34.41-.69.8-1,1.19a242.2,242.2,0,0,1-26.28,25.44c-.48.41-1,.8-1.45,1.2a259.53,259.53,0,0,1-39.69,26.85c-.72.4-1.45.81-2.19,1.19a270.07,270.07,0,0,1-64.5,24.75c-1.69.41-3.41.81-5.11,1.19a264.15,264.15,0,0,1-57.29,6.35A251.47,251.47,0,0,1,362,522.57c-1.64-.38-3.29-.78-4.92-1.19a248.58,248.58,0,0,1-61.86-24.75c-.71-.39-1.41-.79-2.1-1.19a252.62,252.62,0,0,1-37.92-26.85l-1.39-1.2A253.11,253.11,0,0,1,228.36,442c-.35-.39-.69-.78-1-1.19a252.88,252.88,0,0,1-20.09-26.85c-.27-.4-.52-.8-.77-1.19a252.4,252.4,0,0,1-14.7-26.16c-.2-.39-.39-.8-.57-1.19a250.6,250.6,0,0,1-10.81-26.14c-.15-.41-.29-.8-.42-1.2a254.94,254.94,0,0,1-7.29-25.44c-.1-.4-.18-.8-.28-1.19a258.61,258.61,0,0,1-4.79-28.89s282.42-.24,423.16.84H592C638,303.72,668.58,304.21,668.58,304.91Z" fill="#231f20" opacity="0.2"/><path d="M670.34,274.76c0,7.06-.29,14.07-.85,21l-97.13,0H535.27l-216.39-.05H167q-.84-10.35-.84-20.89a254.29,254.29,0,0,1,151-232.9q9.57-4.23,19.53-7.66c5.77-2,11.61-3.76,17.56-5.32a248.55,248.55,0,0,1,45-7.57c3.9-.3,7.84-.5,11.79-.61q3.6-.11,7.22-.1c.94,0,1.88,0,2.81,0,75.18.82,142.46,34.83,188.12,88.17q6.39,7.44,12.18,15.38c1.59,2.16,3.13,4.35,4.66,6.57,1.77,2.61,3.5,5.24,5.19,7.93A254.45,254.45,0,0,1,670.34,274.76Z" fill="#fff" opacity="0.6"/><path d="M399.22,21.31,290.68,295.47h-44.5l108-266.59A248.55,248.55,0,0,1,399.22,21.31Z" fill="#fff" opacity="0.2"/><path d="M421,20.62,318.88,295.67l-1.66,4.48H304.73l1.7-4.48L411,20.7q3.6-.11,7.22-.1C419.17,20.6,420.11,20.6,421,20.62Z" fill="#fff" opacity="0.2"/><path d="M336.63,34.2,231.44,295.66l-.86,2.15s-11.41-1.71-17.17-1.56l.24-.59L317.1,41.86Q326.67,37.63,336.63,34.2Z" fill="#fff" opacity="0.2"/><path d="M129.48,181.77s-1.29-71.6,74.18-54.83c0,0,19.4-29.38,45.87-17.22a12.62,12.62,0,0,1,7.38,12.21c-.48,7.39-4.28,18.77-19.71,30.81l-103.85,40Z" fill="#0071f2"/><path d="M129.48,181.77s-1.29-71.6,74.18-54.83c0,0,19.4-29.38,45.87-17.22a12.62,12.62,0,0,1,7.38,12.21c-.48,7.39-4.28,18.77-19.71,30.81l-103.85,40Z" fill="#fff" opacity="0.5"/><g opacity="0.2"><rect x="590.76" y="301.15" width="1.19" height="30.14" fill="#231f20"/><path d="M666.8,331.4c-.06.39-.1.8-.17,1.19h-494c-.1-.4-.18-.8-.28-1.19Z" fill="#231f20"/><rect x="199.6" y="302.55" width="1.19" height="29.44" fill="#231f20"/><path d="M661.28,358l-.33,1.2H180.38c-.15-.41-.29-.8-.42-1.2Z" fill="#231f20"/><path d="M651.44,385.37c-.18.41-.35.8-.54,1.19H191.76c-.2-.39-.39-.8-.57-1.19Z" fill="#231f20"/><path d="M636.79,412.72c-.25.41-.5.8-.76,1.19H207.23c-.27-.4-.52-.8-.77-1.19Z" fill="#231f20"/><path d="M615.79,440.76c-.34.41-.69.8-1,1.19H228.36c-.35-.39-.69-.78-1-1.19Z" fill="#231f20"/><path d="M588.46,467.39c-.48.41-1,.8-1.45,1.2H255.15l-1.39-1.2Z" fill="#231f20"/><path d="M547.32,495.44c-.72.4-1.45.81-2.19,1.19h-250c-.71-.39-1.41-.79-2.1-1.19Z" fill="#231f20"/><path d="M480.63,521.38c-1.69.41-3.41.81-5.11,1.19H362c-1.64-.38-3.29-.78-4.92-1.19Z" fill="#231f20"/><rect x="244.47" y="331.29" width="1.19" height="27.34" fill="#231f20"/><rect x="244.47" y="385.27" width="1.19" height="27.34" fill="#231f20"/><rect x="324.38" y="386.67" width="1.19" height="27.34" fill="#231f20"/><rect x="362.94" y="413.31" width="1.19" height="27.34" fill="#231f20"/><rect x="324.38" y="442.05" width="1.19" height="25.49" fill="#231f20"/><rect x="405.52" y="441.71" width="1.19" height="25.49" fill="#231f20"/><rect x="361.88" y="467.96" width="1.19" height="28.22" fill="#231f20"/><rect x="555.71" y="332.7" width="1.19" height="25.94" fill="#231f20"/></g><path d="M621.34,124.17,548.2,295.72l-1.76,4.12-11.17-4.12,73.89-186.93Q615.55,116.23,621.34,124.17Z" fill="#fff" opacity="0.2"/><path d="M631.19,138.67,572.36,295.72l-.66,1.77-8.82.58.89-2.35,62.23-165C627.77,133.35,629.5,136,631.19,138.67Z" fill="#fff" opacity="0.2"/><path d="M669.7,293.21c-.34,4.8-.47,9.39-1.08,14.1l-500.34.7a142.13,142.13,0,0,1-1.46-15.52Z" fill="#0071f2"/><path d="M734.57,335c-10.36,5.71-22.75,4.44-22.75,4.44-27.36,2.66-61.32,40.38-61.32,40.38-33.85,9.79-54.52,33.46-66.85,55.4-5-8.19-14.2-28.34,11.82-35.64,0,0-15.34-57.69,51.79-63,0,0,18-32.45,43-22.16,0,0,11.84,2.13,12.07,15.43a1,1,0,0,0,1.52.88,15.11,15.11,0,0,0,7.72-15.06s-7.74-13.72,6.19-12.85C717.8,302.87,734.59,304.84,734.57,335Z" fill="#0071f2"/><path d="M734.57,335c-10.36,5.71-22.75,4.44-22.75,4.44-27.36,2.66-61.32,40.38-61.32,40.38-33.85,9.79-54.52,33.46-66.85,55.4-5-8.19-14.2-28.34,11.82-35.64,0,0-15.34-57.69,51.79-63,0,0,18-32.45,43-22.16,0,0,11.84,2.13,12.07,15.43a1,1,0,0,0,1.52.88,15.11,15.11,0,0,0,7.72-15.06s-7.74-13.72,6.19-12.85C717.8,302.87,734.59,304.84,734.57,335Z" fill="#fff" opacity="0.5"/><path d="M600.86,132.78s-18.66-6.36-14.42-24.17c0,0,.85-26.72,84.39-25.45,0,0,1.28-28,34.36-24.17,0,0,21.2.85,19.93,22.05,0,0,38.59-6.79,40.71,24.17,0,0,.85,53.44-88.63,38.6,0,0-11.45-2.55-18.66,3.81,0,0-60.65,32.66-67.86,14C590.68,161.62,584.32,152.29,600.86,132.78Z" fill="#0071f2"/><path d="M600.86,132.78s-18.66-6.36-14.42-24.17c0,0,.85-26.72,84.39-25.45,0,0,1.28-28,34.36-24.17,0,0,21.2.85,19.93,22.05,0,0,38.59-6.79,40.71,24.17,0,0,.85,53.44-88.63,38.6,0,0-11.45-2.55-18.66,3.81,0,0-60.65,32.66-67.86,14C590.68,161.62,584.32,152.29,600.86,132.78Z" fill="#fff" opacity="0.6"/><path d="M785.07,325s-13.16,43.12-44.75,55.21a45.34,45.34,0,0,1-13.14,2.69,27.19,27.19,0,0,0-23.09,15.56,60.12,60.12,0,0,1-10.51,15.32c-8.51,8.85-22.93,20.42-40.88,21.52,0,0-17.65,2.05-29.41,17.38s-32.72,37.85-59.83,38.36c0,0-5.11-1-18.93,4.1,0,0-11.55,5.24-8.84-7.35,0,0,11.13-21.67,27.12-29.5a11.38,11.38,0,0,0,5.6-6.32,160.39,160.39,0,0,1,20.72-38.18c12.23-16.6,30.16-33.68,55.39-42.36a146.15,146.15,0,0,0,34.73-17.29c13.63-9.27,33-20.1,48.82-19.69a108,108,0,0,0,20.26-5.93c21.13-8.43,48.58-27.38,28.39-66.07,0,0-4.1-7.16,3.06-4.09C779.78,258.39,804.16,278,785.07,325Z" fill="#0071f2"/><path d="M785.07,325s-13.16,43.12-44.75,55.21a45.34,45.34,0,0,1-13.14,2.69,27.19,27.19,0,0,0-23.09,15.56,60.12,60.12,0,0,1-10.51,15.32c-8.51,8.85-22.93,20.42-40.88,21.52,0,0-17.65,2.05-29.41,17.38s-32.72,37.85-59.83,38.36c0,0-5.11-1-18.93,4.1,0,0-11.55,5.24-8.84-7.35,0,0,11.13-21.67,27.12-29.5a11.38,11.38,0,0,0,5.6-6.32,160.39,160.39,0,0,1,20.72-38.18c12.23-16.6,30.16-33.68,55.39-42.36a146.15,146.15,0,0,0,34.73-17.29c13.63-9.27,33-20.1,48.82-19.69a108,108,0,0,0,20.26-5.93c21.13-8.43,48.58-27.38,28.39-66.07,0,0-4.1-7.16,3.06-4.09C779.78,258.39,804.16,278,785.07,325Z" fill="#fff" opacity="0.6"/><polygon points="531.4 366.27 564.9 367.12 527.58 399.35 531.4 366.27" fill="#a7a9ac"/><polygon points="564.9 374.33 564.05 563.05 557.69 569.84 550.91 564.33 552.18 384.08 564.9 374.33" fill="#a7a9ac"/><polygon points="564.9 367.11 564.9 374.33 557.62 380.68 552.17 385.44 525.64 408.59 521.65 412.08 519.95 406.13 520.77 405.42 564.9 367.11" fill="#bcbec0"/><path d="M94.65,225S61,255.08,78.41,274a7.44,7.44,0,0,0,5.53,2.39c6.18-.06,19.67-3.81,32.94-31.55a32.89,32.89,0,0,0,2.65-8.33c1-5.09,4.35-14.54,16.4-17.32,0,0,9-2.58,13.55-14.83,0,0,9-13.55,31-12.26,0,0,57.78,0,68.69-36.05a14,14,0,0,0-.27-8.95c-3-8-12.9-21.36-45.2-8.54,0,0-22.57,11.61-41.28,37.42C162.38,176,102.39,174,94.65,225Z" fill="#0071f2"/><path d="M94.65,225S61,255.08,78.41,274a7.44,7.44,0,0,0,5.53,2.39c6.18-.06,19.67-3.81,32.94-31.55a32.89,32.89,0,0,0,2.65-8.33c1-5.09,4.35-14.54,16.4-17.32,0,0,9-2.58,13.55-14.83,0,0,9-13.55,31-12.26,0,0,57.78,0,68.69-36.05a14,14,0,0,0-.27-8.95c-3-8-12.9-21.36-45.2-8.54,0,0-22.57,11.61-41.28,37.42C162.38,176,102.39,174,94.65,225Z" fill="#fff" opacity="0.6"/><path d="M98.86,360.51s-9.71-107.14,51.26-137.45a1.08,1.08,0,0,1,1.43.48c.66,1.28,1.37,4-.77,8a18.26,18.26,0,0,0-1.9,5.25c-1,5.48-1.71,17.3,4,35.59,0,0,9.4,28.59-12.53,55.22,0,0-3.92,5.09,2.74,5.09,0,0,48.56-2,66.18,47.78a23.23,23.23,0,0,1,1.26,10.67,9,9,0,0,0,9.08,9.87c11.49-.18,27.55,3,36.65,19.79l12.14,29s28.59,51.3,64.23,61.49c0,0-82.24,36-126.49-29l-46.61-58.74S126.67,355.41,98.86,360.51Z" fill="#0071f2"/><path d="M98.86,360.51s-9.71-107.14,51.26-137.45a1.08,1.08,0,0,1,1.43.48c.66,1.28,1.37,4-.77,8a18.26,18.26,0,0,0-1.9,5.25c-1,5.48-1.71,17.3,4,35.59,0,0,9.4,28.59-12.53,55.22,0,0-3.92,5.09,2.74,5.09,0,0,48.56-2,66.18,47.78a23.23,23.23,0,0,1,1.26,10.67,9,9,0,0,0,9.08,9.87c11.49-.18,27.55,3,36.65,19.79l12.14,29s28.59,51.3,64.23,61.49c0,0-82.24,36-126.49-29l-46.61-58.74S126.67,355.41,98.86,360.51Z" fill="#fff" opacity="0.6"/><path d="M128.24,391.83s-23.13-4-29-26.76a12.62,12.62,0,0,1,3.3-12c6.7-6.75,20.5-15.06,37.86,4.7,0,0,12.64,10.12,28,40a18.32,18.32,0,0,0,14.93,10c8.42.56,20.45,4.79,28,22.41,0,0,3.76,13-3.16,22.46A18.74,18.74,0,0,0,205,469.4a94.9,94.9,0,0,1,3.5,15.64s-8.46-11.91-28.19-18.34a58,58,0,0,1-29.67-21.38,56.43,56.43,0,0,1-10.28-33.12S145.47,390.66,128.24,391.83Z" fill="#0071f2"/><path d="M128.24,391.83s-23.13-4-29-26.76a12.62,12.62,0,0,1,3.3-12c6.7-6.75,20.5-15.06,37.86,4.7,0,0,12.64,10.12,28,40a18.32,18.32,0,0,0,14.93,10c8.42.56,20.45,4.79,28,22.41,0,0,3.76,13-3.16,22.46A18.74,18.74,0,0,0,205,469.4a94.9,94.9,0,0,1,3.5,15.64s-8.46-11.91-28.19-18.34a58,58,0,0,1-29.67-21.38,56.43,56.43,0,0,1-10.28-33.12S145.47,390.66,128.24,391.83Z" fill="#fff" opacity="0.5"/><polygon points="526.31 580.44 518.67 586.37 516.55 406.98 520.77 405.42 519.95 406.13 521.65 412.08 525.64 408.59 526.31 580.44" fill="#a7a9ac"/><polygon points="518.67 586.38 511.81 583.63 509.25 408.99 516.55 406.99 518.67 586.38" fill="#bcbec0"/><rect x="435.12" y="524.96" width="13.91" height="45.65" fill="#a7a9ac"/><path d="M445.87,553.53c-24.76,13.1-37.14,8.38-37.14,8.38l7.28-5.32a4.79,4.79,0,0,0,1.91-4.46c-1-7.3-3.91-22.82-3.91-22.82l30.41.91Z" fill="#f9b499"/><path d="M446.42,576.46c-17.84,11.84-44.06,16.39-44.06,16.39-23,5.78-29.13-5.65-29.13-5.65-10.19-16.56,35.5-25.29,35.5-25.29s12.38,4.72,37.14-8.38Z" fill="#0071f2"/><path d="M446.42,576.46l-.2,1.84a4.09,4.09,0,0,1-1.84,3,115,115,0,0,1-26.83,12.41c-41.6,11.76-44.32-6.49-44.32-6.49s6.13,11.43,29.13,5.65C402.36,592.85,428.58,588.3,446.42,576.46Z" fill="#2f2e41"/><polygon points="469.72 539.94 469.72 558.48 475.78 563.48 482.56 556.34 482.56 538.87 469.72 539.94" fill="#a7a9ac"/><polygon points="469.72 558.48 475.78 563.48 475.78 539.23 469.72 539.23 469.72 558.48" fill="#231f20" opacity="0.2"/><path d="M515.25,569.29c-10,19-25.11,17-25.11,17-5.89-1-5.5-6.5-4.26-10.71a28.69,28.69,0,0,1,1.2-3.27,7.77,7.77,0,0,0,.55-4L485,547.86l27.56-4.7Z" fill="#f9b499"/><path d="M515.52,590.27c-4.12,10.94-22.34,30.27-22.34,30.27a20.45,20.45,0,0,1-17.39,6.93,13.33,13.33,0,0,1-7-2.47,11.44,11.44,0,0,1-1.82-1.69c-5.65-6.55.18-16.4.18-16.4,4.77-7.13,18.71-31.38,18.71-31.38-1.24,4.21-1.63,9.73,4.26,10.71,0,0,15.11,2,25.11-17C517.84,578.9,515.52,590.27,515.52,590.27Z" fill="#0071f2"/><path d="M500.07,545.34a95.25,95.25,0,0,1,4,36.85,35.16,35.16,0,0,0,11.14-12.9l-2.65-26.13Z" fill="#f7a48b"/><path d="M546.87,376.09c.57,13.81-16.61,25.09-23.46,29a4.17,4.17,0,0,0-2,4.53c6.15,27.61,10.84,108.43,11.69,123.73a8.49,8.49,0,0,1-1.38,5.28,24.06,24.06,0,0,1-9.83,7.86C511,551.69,497,551.69,497,551.69c-41.3-2.5-35.92-14.37-35.92-14.37v-59.6l-3.59,46.68c.36,16.16-50.27,6.11-50.27,6.11L415.08,370l39.86-14c25,4.42,44.15,3.49,57.82,1.07,17.41-3.09,25.85-8.62,25.85-8.62C548.3,354.54,546.87,376.09,546.87,376.09Z" fill="#2f2e41"/><path d="M546.87,376.09c.57,13.81-16.61,25.09-23.46,29a4.17,4.17,0,0,0-2,4.53c6.15,27.61,10.84,108.43,11.69,123.73a8.49,8.49,0,0,1-1.38,5.28,24.06,24.06,0,0,1-9.83,7.86l-7.69-127s-2.52-11.67,3.38-16.39a13.23,13.23,0,0,0,2.91-3c3.82-5.84,11.69-22.77-7.72-43.08,17.41-3.09,25.85-8.62,25.85-8.62C548.3,354.54,546.87,376.09,546.87,376.09Z" fill="#231f20" opacity="0.2"/><path d="M440.47,533.52s14.83-77.71,18.78-121.16c0,0,2.15,74.33-1.8,112,0,0,.41,4.77-6,7.07A26.55,26.55,0,0,1,440.47,533.52Z" fill="#231f20" opacity="0.2"/><path d="M538.61,348.43s-26.2,17.44-83.67,7.54l1.69-6.15s.31.08.9.18l.86.17h.05a156.64,156.64,0,0,0,39.36,2.91A114.57,114.57,0,0,0,538,343.7Z" fill="#0071f2"/><path d="M538.61,348.43s-26.2,17.44-83.67,7.54l1.69-6.15s.31.08.9.18l.86.17h.05a156.64,156.64,0,0,0,39.36,2.91A114.57,114.57,0,0,0,538,343.7Z" fill="#fff" opacity="0.2"/><path d="M544.69,275.25V306.5c0,36-6.73,37.2-6.73,37.2a114.57,114.57,0,0,1-40.16,9.39,156.64,156.64,0,0,1-39.36-2.91h-.05l-.86-.17a133.09,133.09,0,0,1-14.39-3.73,1,1,0,0,1-.65-.75,80.24,80.24,0,0,1-1-12.68v-.08c-.09-6.84.27-14.44.76-21.24h0l1.85-19.74,0-.23v-.09l-1.11-.08H443a34.55,34.55,0,0,1-8.81-1.9,26.28,26.28,0,0,1-3.52-1.59,19.56,19.56,0,0,1-3.77-2.61,1.62,1.62,0,0,1-.51-1.24c1.72-46.93,17.78-62.21,17.78-62.21,5.48-5.47,13.95-8.75,22.86-10.7,3.14-.69,6.34-1.2,9.46-1.59a157.94,157.94,0,0,1,28.63-.77c36.8-1.18,43.92,10.69,43.92,10.69C564.08,232.9,544.69,275.25,544.69,275.25Z" fill="#0071f2"/><path d="M442.53,308c.66-8.23,1.42-14.71,1.6-16.21l-1.85,19.74.33-3.51Z" fill="#0071f2"/><path d="M442.61,308l-.33,3.51h0c.08-1.2.18-2.39.26-3.53Z" fill="#0071f2"/><path d="M444.17,291.46s1.59-23.74,7.92-35.61c0,0-1.34,40.59.64,57.61l-10.44-2Z" fill="#231f20" opacity="0.2"/><path d="M460.79,315l7.91-.18a7.58,7.58,0,0,0,5.87-3c3.67-4.92,10.78-15.2,13.51-24.35,0,0,1.87-10.7,6.68-17.92l14.18-23s-18.16,34.07-14.42,41.78a1.67,1.67,0,0,1,0,1.62l-16.86,28.28Z" fill="#231f20" opacity="0.2"/><path d="M544.69,275.25V306.5c0,36-6.73,37.2-6.73,37.2a114.57,114.57,0,0,1-40.16,9.39c21.78-15.56,28.07-45.67,28.25-46.62l-32.89,34.75c-18.56,15.25-48.71-6.2-51.65-8.38l-.23-.16.23.08,19.55,7.65c21.67,9.09,34-5.88,34-5.88l29.68-32.9C540.77,303.5,544.69,275.25,544.69,275.25Z" fill="#231f20" opacity="0.2"/><path d="M540,220.32s5.62,16.59-.54,38.52l-9.09,30S561.9,231.56,540,220.32Z" fill="#fff" opacity="0.2"/><path d="M518.57,209.09s-7.48,15.51-27.28,15.51c0,0-17.47.4-24.26-13.48,3.14-.69,6.34-1.2,9.46-1.59.62.86,5.38,7,15.34,6,0,0,9.72-.65,13.29-6.75Z" fill="#fff" opacity="0.2"/><path d="M479.79,192.77s5.61,12-3.21,16.85c0,0,4.28,6.42,13.64,5.89,0,0,10,.68,14.89-6.75,0,0-6.33-7.43-2.32-15.45Z" fill="#f9b499"/><path d="M496.64,192.77s5.88,13.64-2.41,22.2c0,0,7.32-.39,10.88-6.21a15,15,0,0,1-2.32-15.45Z" fill="#f7a48b"/><path d="M578.56,193a6,6,0,0,1-.34.53c-.11.17-.23.33-.36.5-5.58,7.36-17,5.44-17,5.44-19.26-.54-29.42,11.24-29.42,11.24l-.76-.18c-10.89-2.47-25.53-1.75-25.53-1.75a12.19,12.19,0,0,1-2-2.78c-2.9-5.43-.84-11.34-.84-11.34s0-.12.06-.16A38,38,0,0,0,518,178.59a48.47,48.47,0,0,0,5.08-14.24.61.61,0,0,0,0-.11l.38.18c1.12,9.82,14.74,15.41,24.27,18.16a66.72,66.72,0,0,0,13.59,2.31c14.63,1.09,17.1,7.6,17.1,7.6Z" fill="#231f20" opacity="0.2"/><path d="M494.46,622.65a29.52,29.52,0,0,1-6,4.78c-14.15,8.28-21.88-4.66-21.88-4.66s.33.64.43.54a11.44,11.44,0,0,0,1.82,1.69,13.33,13.33,0,0,0,7,2.47,20.45,20.45,0,0,0,17.39-6.93s18.22-19.33,22.34-30.27C518,598,500.5,616.56,494.46,622.65Z" fill="#2f2e41"/><path d="M482.5,610.32a.58.58,0,0,1-.42-.18,30.91,30.91,0,0,0-11.1-6.63.6.6,0,0,1-.39-.75.6.6,0,0,1,.75-.39,31.62,31.62,0,0,1,11.58,6.93.6.6,0,0,1-.42,1Z" fill="#fff"/><path d="M485.44,605.72a.6.6,0,0,1-.39-.15c-4.44-3.82-11.92-6.47-12-6.49a.59.59,0,0,1-.37-.76.6.6,0,0,1,.76-.37c.32.11,7.77,2.75,12.38,6.72a.59.59,0,0,1,.06.84A.57.57,0,0,1,485.44,605.72Z" fill="#fff"/><path d="M487.9,602.1a.58.58,0,0,1-.42-.17A33.4,33.4,0,0,0,475.62,595a.59.59,0,0,1-.4-.74.6.6,0,0,1,.75-.4,34,34,0,0,1,12.34,7.21.59.59,0,0,1,0,.84A.58.58,0,0,1,487.9,602.1Z" fill="#fff"/><path d="M490.84,597.5a.64.64,0,0,1-.39-.14c-4.44-3.83-12.32-6.6-12.4-6.63a.6.6,0,0,1-.37-.76.59.59,0,0,1,.76-.36c.33.11,8.18,2.87,12.79,6.84a.59.59,0,0,1,.06.84A.57.57,0,0,1,490.84,597.5Z" fill="#fff"/><path d="M493.13,593.39a.59.59,0,0,1-.39-.14c-4.44-3.83-12.32-6.6-12.4-6.63a.58.58,0,0,1-.37-.75.59.59,0,0,1,.76-.37c.33.11,8.18,2.87,12.79,6.85a.59.59,0,0,1-.39,1Z" fill="#fff"/><path d="M444.17,291.46v.09l0,.23-1.85,19.74h0L428.75,309l1.92-21.08a26.28,26.28,0,0,0,3.52,1.59,34.55,34.55,0,0,0,8.81,1.9h.06A4.7,4.7,0,0,0,444.17,291.46Z" fill="#f9b499"/><path d="M442.61,308l-.33,3.51h0L428.75,309l1.92-21.08a26.28,26.28,0,0,0,3.52,1.59l-1.58,9.77c-.31,6.12,9,8.53,9.92,8.75Z" fill="#f7a48b"/><path d="M459.25,412.36s-5.73-12.25,20.95-39.48c0,0-18.34,28.9-16.67,50.57l-3.89,33.9Z" fill="#fff" opacity="0.2"/><path d="M425.51,299.43s13.09-20.11,23.68-25.88a.71.71,0,0,1,1,.81c-.92,3.35-5.07,12.87-23.93,31.94Z" fill="#2f2e41"/><ellipse cx="490.22" cy="153.72" rx="33.97" ry="43.6" fill="#f9b499"/><path d="M580.63,186.89a15.77,15.77,0,0,1-2.07,6.09,6,6,0,0,1-.34.53c-.11.17-.23.33-.36.5-5.58,7.36-17,5.44-17,5.44-19.26-.54-29.42,11.24-29.42,11.24l-.76-.18c-10.89-2.47-25.53-1.75-25.53-1.75a12.19,12.19,0,0,1-2-2.78c-2.9-5.43-.84-11.34-.84-11.34s0-.12.06-.16A38,38,0,0,0,518,178.59a48.47,48.47,0,0,0,5.08-14.24.61.61,0,0,0,0-.11,52.17,52.17,0,0,0-.56-23.63c-27.82,6.95-43.07-16.86-43.07-16.86a17.55,17.55,0,0,0,4.27,12.3c-8.81-3.74-10.41-19.52-10.41-19.52-3.09,8.9-7.9,13.12-10.67,14.91a8.76,8.76,0,0,0-3.59,4.42c-3.07,8.62-2.87,20.26-2.87,20.26,1.22,15.17,6.61,24.78,12,30.69a35.65,35.65,0,0,0,6.28,5.49c.34.25.69.48,1,.68a5.3,5.3,0,0,0,.48.3,4,4,0,0,0,.47.29c.29.18.59.34.87.5l.33.18.37.19a.25.25,0,0,1,.08.05l.59.28.31.15.79.34c.12.05.22.1.32.13.4.16.62.23.62.23,3.17,11-4.21,14-4.21,14-.3-.78-1.38-1.43-2.87-2-5.16-1.9-15.32-2.55-15.32-2.55-14.65-2.27-15.08-30.59-13.61-50,.78-10.36,2.11-18.18,2.11-18.18,6.42-46.82,35.57-42.27,35.57-42.27,23.76-23.76,49.19,3.87,62.53,23,1.42,2,2.69,4,3.81,5.72a83.52,83.52,0,0,1,7.34,14.49c6.39,16.25,18.33,28.2,18.33,28.2a19.65,19.65,0,0,1,6.16,20.87Z" fill="#2f2e41"/><ellipse cx="523.52" cy="152.25" rx="8.96" ry="12.17" fill="#f9b499"/><path d="M581.49,180.28c-8.33-14.42-20.66-18.54-20.66-18.54-16.09-4.18-16.67-12.27-16.16-15.61.38-2.45.74-4.9.89-7.37a128.22,128.22,0,0,0-.57-21.15c1.42,2,2.69,4,3.81,5.73a83.52,83.52,0,0,1,7.34,14.49c6.39,16.25,18.33,28.19,18.33,28.19A19.49,19.49,0,0,1,581.49,180.28Z" fill="#231f20" opacity="0.2"/><path d="M482.46,94.61S453.51,109.24,445,155.26l-.21-.2c.78-10.36,2.11-18.19,2.11-18.19C453.31,90.06,482.46,94.61,482.46,94.61Z" fill="#231f20" opacity="0.2"/><path d="M476.58,209.62c-.3-.78-1.38-1.43-2.87-2-.64-7.74-5-19.55-5.44-20.81l0-.1a39.4,39.4,0,0,0,6.33,5.59c.34.24.68.47,1,.68q.24.17.48.3a4,4,0,0,0,.47.29c.29.18.59.34.87.5l.33.18c.13.07.25.14.37.19a.25.25,0,0,1,.08.05l.59.28.31.15c.3.14.56.26.79.34a2,2,0,0,0,.32.13c.4.16.62.23.62.23C484,206.6,476.58,209.62,476.58,209.62Z" fill="#231f20" opacity="0.2"/><path d="M502.67,103.75a3.12,3.12,0,0,1-3.62,1.21c-5.94-2.1-20.21-6.54-12,2.49,0,0,15.24,19.79,28.35,18.72,0,0,2.61-.65-2.56-4.9a6.87,6.87,0,0,1-2.56-6.5c.5-2.64,2.69-5.31,9.6-5a10.73,10.73,0,0,1,3.21.65c2.92,1,10.08,2.73,13.44-4,0,0-5.35-6.69-10.16-10.17,0,0-4,5.08-12.31,3.21C514,99.42,507.47,96.71,502.67,103.75Z" fill="#231f20" opacity="0.2"/><path d="M372.7,92.35s23.16-.3,21.62,20.88c0,0-9.29,10.56-19.57,9.33a11.68,11.68,0,0,1-8.82-6.13C363.43,111.75,362,103.4,372.7,92.35Z" fill="#0071f2"/><path d="M372.7,92.35s23.16-.3,21.62,20.88c0,0-9.29,10.56-19.57,9.33a11.68,11.68,0,0,1-8.82-6.13C363.43,111.75,362,103.4,372.7,92.35Z" fill="#fff" opacity="0.7"/><circle cx="377.67" cy="109.06" r="5.26" fill="#fff" opacity="0.7"/><path d="M394.32,113.23s20.05-29.1,22.86-44.77c0,0-25.22,4.06-44.48,23.89C372.7,92.35,395.74,91.31,394.32,113.23Z" fill="#0071f2"/><path d="M394.32,113.23s20.05-29.1,22.86-44.77c0,0-25.22,4.06-44.48,23.89C372.7,92.35,395.74,91.31,394.32,113.23Z" fill="#231f20" opacity="0.1"/><path d="M420,66.87a263.6,263.6,0,0,1,29.93-9.26,18.45,18.45,0,0,0,6.53-2.81c.31-.22.61-.45.91-.7a7.35,7.35,0,0,0-1-12C449.3,38,434.81,35.27,420,66.87Z" fill="#0071f2"/><path d="M420,66.87a263.6,263.6,0,0,1,29.93-9.26,18.45,18.45,0,0,0,6.53-2.81c.31-.22.61-.45.91-.7a7.35,7.35,0,0,0-1-12C449.3,38,434.81,35.27,420,66.87Z" fill="#231f20" opacity="0.3"/><path d="M445.09,49.13a34.65,34.65,0,0,0,2.1-4.92,37.63,37.63,0,0,0-3.74,5.51,45.26,45.26,0,0,0-5.54,2.52c-.72.39-1.43.8-2.14,1.21a44.15,44.15,0,0,0,2.26-5,49.51,49.51,0,0,0-3.87,5.61l-.38.63c-1.2.77-2.38,1.59-3.51,2.46-.66.51-1.31,1-1.95,1.57.4-.73.8-1.47,1.18-2.21s.77-1.51,1.14-2.28.72-1.54,1-2.34c-.55.66-1,1.36-1.55,2s-1,1.39-1.43,2.1c-.94,1.42-1.83,2.87-2.69,4.33l-.54.92c-.66.63-1.29,1.28-1.9,2,.79-.63,1.58-1.25,2.38-1.86l.69-.14a74.65,74.65,0,0,0,9.59-2.49,68.24,68.24,0,0,0-8.09,1c.88-.64,1.76-1.26,2.66-1.86,1.57-1,3.16-2,4.77-3,1.46,0,2.91.06,4.36,0a44.88,44.88,0,0,0,5.29-.42,44.77,44.77,0,0,0-5.27-.61c-.8-.06-1.6-.09-2.4-.12l.92-.52A51.27,51.27,0,0,1,443.13,51l.53,0A38.73,38.73,0,0,0,451,51a35.12,35.12,0,0,0-5.54-1l1.1-.44,2.1-.76c.71-.24,1.43-.41,2.15-.63,1.42-.5,2.91-.69,4.37-1.09a36.29,36.29,0,0,0-8.92,1.61C445.89,48.85,445.49,49,445.09,49.13Z" fill="#231f20" opacity="0.3"/><path d="M420.65,69.2a52.21,52.21,0,0,1,15,14s11.57,17.14,22,2.68c0,0,4.89-7.4-4.36-13.92a22,22,0,0,0-8.71-3.56C439.08,67.36,428.62,66.1,420.65,69.2Z" fill="#0071f2"/><path d="M420.65,69.2a52.21,52.21,0,0,1,15,14s11.57,17.14,22,2.68c0,0,4.89-7.4-4.36-13.92a22,22,0,0,0-8.71-3.56C439.08,67.36,428.62,66.1,420.65,69.2Z" fill="#231f20" opacity="0.3"/><g opacity="0.3"><path d="M429.19,69.72a45.78,45.78,0,0,1,6.54,2.22,54,54,0,0,1,6.21,3,44.39,44.39,0,0,1,5.7,3.93,26.55,26.55,0,0,1,4.73,5c-.85-.78-1.62-1.62-2.53-2.32s-1.77-1.42-2.67-2.11q-2.78-2-5.73-3.67c-2-1.14-4-2.18-6-3.21-1-.52-2.05-1-3.09-1.48S430.24,70.2,429.19,69.72Z" fill="#231f20"/></g><g opacity="0.3"><path d="M435.48,77.69a32.07,32.07,0,0,1-1.78-3.25c-.54-1.1-1-2.22-1.5-3.36l-.27-.67h.71a44.15,44.15,0,0,1,6.89.25,43,43,0,0,1-6.85.74l.44-.69c.47,1.13.92,2.28,1.32,3.44A32.89,32.89,0,0,1,435.48,77.69Z" fill="#231f20"/></g><g opacity="0.3"><path d="M440.28,80.72a27.66,27.66,0,0,1-1-3.39c-.25-1.14-.47-2.28-.63-3.44l-.08-.59.58,0c.9,0,1.79.11,2.69.21a24.8,24.8,0,0,1,2.67.45,24.68,24.68,0,0,1-2.7.27c-.9,0-1.79.06-2.69,0l.5-.56c.21,1.14.36,2.3.48,3.46A25.71,25.71,0,0,1,440.28,80.72Z" fill="#231f20"/></g><g opacity="0.3"><path d="M446,84.81a27.88,27.88,0,0,1-.73-3.45c-.16-1.16-.29-2.32-.36-3.49l0-.54.52,0a28.43,28.43,0,0,1,5,.54,29.32,29.32,0,0,1-5,.42l.49-.52c.13,1.16.2,2.33.24,3.49A26.09,26.09,0,0,1,446,84.81Z" fill="#231f20"/></g><path d="M378.75,85.22S372.53,59.77,390.14,56A4.93,4.93,0,0,1,396,62c-.69,2.73-2.69,6.28-7.4,10.6A36.39,36.39,0,0,0,378.75,85.22Z" fill="#0071f2"/><path d="M378.75,85.22S372.53,59.77,390.14,56A4.93,4.93,0,0,1,396,62c-.69,2.73-2.69,6.28-7.4,10.6A36.39,36.39,0,0,0,378.75,85.22Z" fill="#231f20" opacity="0.3"/><path d="M388.84,60.85c-.48.49-1,1-1.42,1.47a10.14,10.14,0,0,0-.38-1,7.48,7.48,0,0,0-.92-1.71,7.86,7.86,0,0,0,0,1.94,11.73,11.73,0,0,0,.35,1.86v0a35.4,35.4,0,0,0-2.73,3.68l-.93-3,.06,4.14v.21a29.12,29.12,0,0,0-2.29,4.94c0,.08-.05.16-.08.24-.06-.16-.12-.32-.19-.48a9.45,9.45,0,0,0-1.05-1.84,8.73,8.73,0,0,0,.14,2.12,15.46,15.46,0,0,0,.48,2l.05.16a16.07,16.07,0,0,0-.49,3.71,25.4,25.4,0,0,1,1.12-3.46h0a11.91,11.91,0,0,0,3.59-1.46,10.58,10.58,0,0,0-3.09.16c.12-.28.23-.55.35-.82a51.34,51.34,0,0,1,2.71-5.14l3.39-.82-2.78-.15q1.25-2,2.62-3.87a9.85,9.85,0,0,0,3.19-1.1,8.64,8.64,0,0,0-2.25-.15c.91-1.2,1.83-2.39,2.77-3.6C390.33,59.51,389.59,60.19,388.84,60.85Z" fill="#231f20" opacity="0.3"/><path d="M400.22,108.6s23.13,11.11,28.55-5.54a6.37,6.37,0,0,0-.11-4.37c-1-2.32-3.55-4.71-10.56-1C418.1,97.7,407.42,105.22,400.22,108.6Z" fill="#0071f2"/><path d="M400.22,108.6s22.77,10.94,28.42-5.15a6.64,6.64,0,0,0-.2-5.23c-1.11-2.14-3.8-4-10.34-.52C418.1,97.7,407.42,105.22,400.22,108.6Z" fill="#231f20" opacity="0.3"/><path d="M423.15,98.27a21.53,21.53,0,0,0-1.9,2.83c-.55,1-1.06,2-1.51,3l0,0c-1.25.4-2.51.79-3.78,1.14-.21.07-.43.12-.64.18.19-.29.39-.58.57-.88a16.56,16.56,0,0,0,1.33-2.5,15.87,15.87,0,0,0-2.07,1.93c-.58.62-1.11,1.27-1.62,1.93l-3.76,1a6.88,6.88,0,0,0,.1-2,7.25,7.25,0,0,0-1.35,2.37l-2.31.61c.79,0,1.57,0,2.35-.08l.07.09a9.91,9.91,0,0,0,1.3,1.29,6.64,6.64,0,0,0,1.61,1,6.91,6.91,0,0,0-.87-1.69c-.22-.29-.44-.57-.68-.84,1.21-.14,2.41-.32,3.6-.57a22.32,22.32,0,0,0,4.65,2.63,20.26,20.26,0,0,0-3.17-3l1.22-.3a36.55,36.55,0,0,0,4.15-1.47,26.31,26.31,0,0,0,5,.62,24.16,24.16,0,0,0-3.47-1.35,19.91,19.91,0,0,0,3.46-2.21c-1.4.6-2.8,1.11-4.2,1.61.33-.7.64-1.4.92-2.12A19.94,19.94,0,0,0,423.15,98.27Z" fill="#231f20" opacity="0.3"/><path d="M649.43,235.54s-2.35,23-23.21,19.09c0,0-9.43-10.45-7-20.51a11.7,11.7,0,0,1,7.1-8.07C631.23,224.1,639.69,223.68,649.43,235.54Z" fill="#0071f2"/><path d="M649.43,235.54s-2.35,23-23.21,19.09c0,0-9.43-10.45-7-20.51a11.7,11.7,0,0,1,7.1-8.07C631.23,224.1,639.69,223.68,649.43,235.54Z" fill="#fff" opacity="0.7"/><circle cx="632.27" cy="238.56" r="5.26" fill="#fff" opacity="0.7"/><path d="M626.22,254.63s26.61,23.25,41.85,27.83c0,0-1.14-25.52-18.64-46.92C649.43,235.54,647.83,258.55,626.22,254.63Z" fill="#0071f2"/><path d="M626.22,254.63s26.61,23.25,41.85,27.83c0,0-1.14-25.52-18.64-46.92C649.43,235.54,647.83,258.55,626.22,254.63Z" fill="#231f20" opacity="0.1"/><path d="M669.33,285.42a263.86,263.86,0,0,1,5.77,30.79,18.61,18.61,0,0,0,2,6.81c.18.33.38.66.59,1a7.35,7.35,0,0,0,12.07.35C694.64,317.86,699,303.78,669.33,285.42Z" fill="#0071f2"/><path d="M669.33,285.42a263.86,263.86,0,0,1,5.77,30.79,18.61,18.61,0,0,0,2,6.81c.18.33.38.66.59,1a7.35,7.35,0,0,0,12.07.35C694.64,317.86,699,303.78,669.33,285.42Z" fill="#231f20" opacity="0.3"/><path d="M684.07,312.4a33.24,33.24,0,0,0,4.65,2.65,37.64,37.64,0,0,0-5-4.34,44.91,44.91,0,0,0-1.87-5.79c-.31-.76-.63-1.52-1-2.27a44.42,44.42,0,0,0,4.71,2.82,49.41,49.41,0,0,0-5.13-4.48l-.58-.46c-.63-1.28-1.31-2.54-2.05-3.77-.43-.71-.87-1.42-1.33-2.12.68.49,1.37,1,2.06,1.44s1.42.94,2.14,1.39,1.44.89,2.2,1.29c-.59-.62-1.23-1.17-1.85-1.76s-1.27-1.13-1.92-1.67c-1.3-1.1-2.64-2.14-4-3.16l-.85-.65c-.56-.72-1.13-1.43-1.74-2.11.54.86,1.07,1.71,1.58,2.58l.06.7a74.42,74.42,0,0,0,1.37,9.81,67.13,67.13,0,0,0-.07-8.15c.53.94,1,1.9,1.54,2.86.85,1.67,1.64,3.37,2.4,5.08-.21,1.43-.4,2.87-.52,4.32a44.65,44.65,0,0,0-.2,5.31,45,45,0,0,0,1.22-5.17c.15-.79.27-1.58.39-2.37.13.33.28.65.41,1,.66,1.6,1.21,3.24,1.72,4.89l-.1.53a39,39,0,0,0-.8,7.34,35.13,35.13,0,0,0,1.61-5.4c.1.38.21.76.31,1.14L684,316c.15.73.24,1.47.38,2.2.33,1.47.35,3,.58,4.47a37.08,37.08,0,0,0-.57-9C684.26,313.24,684.16,312.82,684.07,312.4Z" fill="#231f20" opacity="0.3"/><path d="M666.94,285.82a52.3,52.3,0,0,1-15.62,13.33s-18.34,9.52-5.18,21.56c0,0,6.79,5.71,14.33-2.73a21.88,21.88,0,0,0,4.53-8.25C666.66,304.35,669.1,294.1,666.94,285.82Z" fill="#0071f2"/><path d="M666.94,285.82a52.3,52.3,0,0,1-15.62,13.33s-18.34,9.52-5.18,21.56c0,0,6.79,5.71,14.33-2.73a21.88,21.88,0,0,0,4.53-8.25C666.66,304.35,669.1,294.1,666.94,285.82Z" fill="#231f20" opacity="0.3"/><g opacity="0.3"><path d="M665.44,294.25a46.76,46.76,0,0,1-3,6.24,53.27,53.27,0,0,1-3.74,5.82,43.41,43.41,0,0,1-4.55,5.22,26.83,26.83,0,0,1-5.55,4.12c.87-.76,1.79-1.42,2.59-2.25s1.62-1.59,2.41-2.41c1.51-1.69,3-3.45,4.3-5.28s2.63-3.71,3.88-5.62c.63-.95,1.24-1.92,1.83-2.9S664.85,295.24,665.44,294.25Z" fill="#231f20"/></g><g opacity="0.3"><path d="M656.8,299.59a31.64,31.64,0,0,1,3.43-1.4c1.16-.41,2.33-.77,3.51-1.1l.7-.2-.06.71a44,44,0,0,1-1,6.81,42.82,42.82,0,0,1,.06-6.89l.63.52c-1.18.34-2.37.65-3.57.92A36.59,36.59,0,0,1,656.8,299.59Z" fill="#231f20"/></g><g opacity="0.3"><path d="M653.25,304a25.87,25.87,0,0,1,3.47-.57c1.16-.12,2.32-.21,3.49-.23h.59l-.09.57c-.14.89-.32,1.77-.52,2.64a22.12,22.12,0,0,1-.75,2.61,24.47,24.47,0,0,1,0-2.71c.06-.9.14-1.79.27-2.68l.5.56c-1.16.08-2.33.09-3.49.08A27.63,27.63,0,0,1,653.25,304Z" fill="#231f20"/></g><g opacity="0.3"><path d="M648.53,309.17a26,26,0,0,1,3.51-.33c1.17,0,2.34,0,3.51,0l.54,0-.07.52a29.38,29.38,0,0,1-1.12,4.92,30.17,30.17,0,0,1,.15-5l.47.54c-1.17,0-2.33-.06-3.5-.16A24.5,24.5,0,0,1,648.53,309.17Z" fill="#231f20"/></g><path d="M655.83,242.37s26-3.26,27.75,14.66a4.93,4.93,0,0,1-6.64,5.15c-2.62-1-5.92-3.4-9.67-8.57A36.4,36.4,0,0,0,655.83,242.37Z" fill="#0071f2"/><path d="M655.83,242.37s26-3.26,27.75,14.66a4.93,4.93,0,0,1-6.64,5.15c-2.62-1-5.92-3.4-9.67-8.57A36.4,36.4,0,0,0,655.83,242.37Z" fill="#231f20" opacity="0.3"/><path d="M678.88,255.18c-.43-.53-.86-1.06-1.3-1.58.37-.07.73-.15,1.09-.25a7.44,7.44,0,0,0,1.8-.72,8,8,0,0,0-1.93-.22,13.11,13.11,0,0,0-1.88.14h0a34.08,34.08,0,0,0-3.34-3.13l3.05-.59-4.12-.41-.2,0a29.51,29.51,0,0,0-4.65-2.84l-.23-.11.49-.13a9.22,9.22,0,0,0,2-.83,9.43,9.43,0,0,0-2.11-.11,17.56,17.56,0,0,0-2.06.25l-.17,0a16.15,16.15,0,0,0-3.62-.91,25.28,25.28,0,0,1,3.3,1.51v0a11.73,11.73,0,0,0,1,3.74,10.75,10.75,0,0,0,.2-3.08l.77.43a54.29,54.29,0,0,1,4.8,3.29l.43,3.46.46-2.74c1.21,1,2.39,2,3.54,3a10.16,10.16,0,0,0,.73,3.29,8.67,8.67,0,0,0,.41-2.22c1.09,1,2.17,2.11,3.26,3.18C680,256.82,679.45,256,678.88,255.18Z" fill="#231f20" opacity="0.3"/><path d="M630.15,261s-13.7,21.71,2.22,29a6.38,6.38,0,0,0,4.36.39c2.41-.69,5.08-3,2.19-10.37C638.92,280,632.67,268.55,630.15,261Z" fill="#0071f2"/><path d="M630.15,261s-13.49,21.37,1.85,28.82a6.63,6.63,0,0,0,5.21.41c2.26-.85,4.41-3.32,1.71-10.21C638.92,280,632.67,268.55,630.15,261Z" fill="#231f20" opacity="0.3"/><path d="M637.77,285a20.83,20.83,0,0,0-2.59-2.22c-.92-.65-1.85-1.28-2.83-1.84l0,0c-.26-1.29-.5-2.58-.71-3.88,0-.22-.06-.44-.1-.66.27.23.53.45.81.67a15.33,15.33,0,0,0,2.34,1.6,16.73,16.73,0,0,0-1.69-2.27,25.06,25.06,0,0,0-1.73-1.83c-.19-1.28-.38-2.56-.56-3.85a6.56,6.56,0,0,0,2,.33,7.16,7.16,0,0,0-2.2-1.61c-.11-.79-.22-1.57-.34-2.37-.1.78-.15,1.56-.19,2.34l-.1.06a10.35,10.35,0,0,0-1.42,1.15,6.41,6.41,0,0,0-1.18,1.48,6.69,6.69,0,0,0,1.77-.67c.31-.18.62-.37.91-.57,0,1.21.05,2.42.16,3.63a23,23,0,0,0-3.15,4.32,20.49,20.49,0,0,0,3.33-2.8c.05.41.09.83.15,1.24a38.17,38.17,0,0,0,1,4.3,26.77,26.77,0,0,0-1.19,4.92,23.09,23.09,0,0,0,1.73-3.3,19.51,19.51,0,0,0,1.81,3.7c-.43-1.46-.78-2.91-1.12-4.35.66.4,1.32.79,2,1.15A20.84,20.84,0,0,0,637.77,285Z" fill="#231f20" opacity="0.3"/><path d="M247.35,227.86s-23.16.61-21.91-20.58c0,0,9.15-10.69,19.44-9.6a11.66,11.66,0,0,1,8.91,6C256.36,208.34,257.85,216.67,247.35,227.86Z" fill="#0071f2"/><path d="M247.35,227.86s-23.16.61-21.91-20.58c0,0,9.15-10.69,19.44-9.6a11.66,11.66,0,0,1,8.91,6C256.36,208.34,257.85,216.67,247.35,227.86Z" fill="#fff" opacity="0.7"/><circle cx="242.15" cy="211.22" r="5.26" fill="#fff" opacity="0.7"/><path d="M225.44,207.28s-19.65,29.37-22.24,45.08c0,0,25.16-4.4,44.15-24.5C247.35,227.86,224.32,229.21,225.44,207.28Z" fill="#0071f2"/><path d="M225.44,207.28s-19.65,29.37-22.24,45.08c0,0,25.16-4.4,44.15-24.5C247.35,227.86,224.32,229.21,225.44,207.28Z" fill="#231f20" opacity="0.1"/><path d="M200.43,254a263,263,0,0,1-29.8,9.66,18.36,18.36,0,0,0-6.49,2.9c-.3.22-.61.46-.9.71a7.35,7.35,0,0,0,1.2,12C171.5,283.25,186,285.78,200.43,254Z" fill="#0071f2"/><path d="M200.43,254a263,263,0,0,1-29.8,9.66,18.36,18.36,0,0,0-6.49,2.9c-.3.22-.61.46-.9.71a7.35,7.35,0,0,0,1.2,12C171.5,283.25,186,285.78,200.43,254Z" fill="#231f20" opacity="0.3"/><path d="M175.56,272.06a32.54,32.54,0,0,0-2,4.95,37.23,37.23,0,0,0,3.65-5.56,44.61,44.61,0,0,0,5.51-2.59c.72-.4,1.43-.82,2.13-1.25a45.12,45.12,0,0,0-2.19,5,50.3,50.3,0,0,0,3.79-5.66l.37-.64c1.19-.79,2.35-1.62,3.47-2.51.66-.52,1.3-1,1.94-1.59-.4.73-.79,1.47-1.16,2.22s-.75,1.53-1.11,2.3-.7,1.55-1,2.36c.54-.67,1-1.38,1.52-2.07s1-1.41,1.41-2.12c.91-1.43,1.78-2.89,2.62-4.36l.53-.93c.64-.64,1.28-1.3,1.87-2-.78.64-1.56,1.27-2.35,1.89l-.69.15a74.78,74.78,0,0,0-9.56,2.62,66.25,66.25,0,0,0,8.08-1.12c-.87.65-1.75,1.29-2.64,1.9-1.55,1.06-3.13,2.06-4.73,3-1.45,0-2.9,0-4.36,0a42.83,42.83,0,0,0-5.28.49,45,45,0,0,0,5.28.54c.8,0,1.6.07,2.4.08-.31.17-.6.36-.91.53-1.5.86-3.06,1.62-4.63,2.33l-.53,0a40.49,40.49,0,0,0-7.38.15,33.08,33.08,0,0,0,5.55.9l-1.09.46-2.09.79c-.71.24-1.43.43-2.14.65-1.41.52-2.9.73-4.35,1.15a36.61,36.61,0,0,0,8.89-1.72Z" fill="#231f20" opacity="0.3"/><path d="M199.72,251.66a52.25,52.25,0,0,1-15.21-13.77s-11.8-17-22-2.38c0,0-4.79,7.46,4.54,13.86a22,22,0,0,0,8.76,3.44C181.31,253.76,191.79,254.87,199.72,251.66Z" fill="#0071f2"/><path d="M199.72,251.66a52.25,52.25,0,0,1-15.21-13.77s-11.8-17-22-2.38c0,0-4.79,7.46,4.54,13.86a22,22,0,0,0,8.76,3.44C181.31,253.76,191.79,254.87,199.72,251.66Z" fill="#231f20" opacity="0.3"/><g opacity="0.3"><path d="M191.17,251.26a46.06,46.06,0,0,1-6.56-2.13,54.91,54.91,0,0,1-6.25-3,43.55,43.55,0,0,1-5.77-3.85,26.83,26.83,0,0,1-4.79-5c.86.77,1.64,1.59,2.56,2.28s1.79,1.4,2.7,2.08q2.81,1.92,5.78,3.59c2,1.11,4,2.12,6.08,3.13,1,.5,2.06,1,3.11,1.43S190.12,250.79,191.17,251.26Z" fill="#231f20"/></g><g opacity="0.3"><path d="M184.77,243.38a30.15,30.15,0,0,1,1.82,3.22c.56,1.09,1.07,2.21,1.55,3.34l.29.66-.72,0a44.12,44.12,0,0,1-6.89-.16,43,43,0,0,1,6.84-.83l-.43.69c-.49-1.12-.95-2.26-1.36-3.42A32.13,32.13,0,0,1,184.77,243.38Z" fill="#231f20"/></g><g opacity="0.3"><path d="M179.93,240.42a26.62,26.62,0,0,1,1,3.37c.26,1.13.5,2.27.68,3.43l.08.58h-.57c-.9,0-1.8-.09-2.69-.18a22.72,22.72,0,0,1-2.69-.41c.9-.16,1.8-.24,2.7-.31s1.8-.09,2.69-.08l-.49.57c-.23-1.14-.39-2.29-.53-3.45A27.33,27.33,0,0,1,179.93,240.42Z" fill="#231f20"/></g><g opacity="0.3"><path d="M174.21,236.4a26.19,26.19,0,0,1,.77,3.44c.18,1.16.33,2.32.41,3.48l0,.55h-.52a29.51,29.51,0,0,1-5-.48,28.46,28.46,0,0,1,5-.49l-.48.53c-.15-1.16-.24-2.32-.29-3.49A24.51,24.51,0,0,1,174.21,236.4Z" fill="#231f20"/></g><path d="M241.4,235.07s6.56,25.36-11,29.4a4.93,4.93,0,0,1-6-5.92c.66-2.73,2.61-6.31,7.26-10.69A36.34,36.34,0,0,0,241.4,235.07Z" fill="#0071f2"/><path d="M241.4,235.07s6.56,25.36-11,29.4a4.93,4.93,0,0,1-6-5.92c.66-2.73,2.61-6.31,7.26-10.69A36.34,36.34,0,0,0,241.4,235.07Z" fill="#231f20" opacity="0.3"/><path d="M231.64,259.57c.47-.49.94-1,1.4-1.48.12.35.24.7.39,1.05a7.9,7.9,0,0,0,.95,1.69,7.83,7.83,0,0,0,0-1.94A12.89,12.89,0,0,0,234,257v0a33.71,33.71,0,0,0,2.68-3.72l1,2.95-.11-4.14v-.2a29.1,29.1,0,0,0,2.22-5c0-.08,0-.16.08-.24.06.15.12.31.19.47a9.25,9.25,0,0,0,1.08,1.83,8.68,8.68,0,0,0-.17-2.12,15,15,0,0,0-.51-2l0-.17a16.56,16.56,0,0,0,.44-3.7,26.69,26.69,0,0,1-1.07,3.46h0a12.13,12.13,0,0,0-3.58,1.5,10.55,10.55,0,0,0,3.09-.19l-.33.82a50.51,50.51,0,0,1-2.65,5.18l-3.37.86,2.77.11q-1.22,2-2.56,3.91a9.84,9.84,0,0,0-3.17,1.14,8.6,8.6,0,0,0,2.25.12q-1.34,1.81-2.72,3.64C230.17,260.93,230.9,260.25,231.64,259.57Z" fill="#231f20" opacity="0.3"/><path d="M219.61,212s-23.28-10.8-28.47,5.93a6.38,6.38,0,0,0,.17,4.37c1,2.3,3.61,4.66,10.57.84C201.88,223.13,212.46,215.46,219.61,212Z" fill="#0071f2"/><path d="M219.61,212s-22.92-10.63-28.34,5.54a6.62,6.62,0,0,0,.26,5.22c1.14,2.13,3.86,3.95,10.35.38C201.88,223.13,212.46,215.46,219.61,212Z" fill="#231f20" opacity="0.3"/><path d="M196.82,222.63a21.58,21.58,0,0,0,1.87-2.86c.53-1,1-2,1.46-3l0,0c1.25-.42,2.5-.83,3.76-1.2l.65-.18c-.2.29-.39.58-.57.88a17.56,17.56,0,0,0-1.29,2.52,17.34,17.34,0,0,0,2.05-2c.56-.63,1.08-1.28,1.59-1.95,1.24-.35,2.49-.71,3.74-1.05a6.9,6.9,0,0,0-.07,2,7.24,7.24,0,0,0,1.32-2.39l2.3-.64c-.79,0-1.57.05-2.34.11l-.08-.09a10.49,10.49,0,0,0-1.31-1.27,6.57,6.57,0,0,0-1.63-1,6.69,6.69,0,0,0,.9,1.67c.21.28.44.56.68.83-1.2.15-2.4.35-3.59.62a22.33,22.33,0,0,0-4.68-2.57,20.15,20.15,0,0,0,3.2,2.94l-1.21.31a37.34,37.34,0,0,0-4.13,1.53,27.09,27.09,0,0,0-5-.55,22.49,22.49,0,0,0,3.48,1.3,19.93,19.93,0,0,0-3.43,2.26c1.39-.61,2.78-1.15,4.18-1.66q-.48,1-.9,2.13A21.76,21.76,0,0,0,196.82,222.63Z" fill="#231f20" opacity="0.3"/><ellipse cx="426.78" cy="351.95" rx="30.75" ry="20.43" fill="#0071f2"/><polygon points="557.69 569.84 550.9 564.32 552.17 385.44 557.62 380.68 557.69 569.84" fill="#231f20" opacity="0.2"/><polygon points="433.71 411.3 442.24 412.4 434.16 416.03 433.71 411.3" fill="#e6e7e8"/><path d="M524.72,301.63,495,334.53s-11.78,14.72-34,5.89l-31.92-12.23-.64-4.73-2-15,51.15,9.72,16.86-28.28A63,63,0,0,0,515,300,47.62,47.62,0,0,0,524.72,301.63Z" fill="#f9b499"/><path d="M524.72,301.63,495,334.53s-11.78,14.72-34,5.89l-31.92-12.23-.64-5,37.37,11.86s12.31,5.35,26-8L515,300A47.62,47.62,0,0,0,524.72,301.63Z" fill="#f7a48b"/><ellipse cx="426.36" cy="347.73" rx="30.75" ry="20.43" fill="#0071f2"/><ellipse cx="426.36" cy="347.73" rx="30.75" ry="20.43" fill="#fff" opacity="0.6"/><polygon points="299.41 577.33 281 433.45 293.27 396.63 316.46 581.42 299.41 577.33" fill="#bcbec0"/><polygon points="323.96 572.55 316.46 581.42 293.27 396.63 299.07 377.88 323.96 572.55" fill="#d1d3d4"/><polygon points="429.5 413.92 433.71 411.3 434.16 416.03 442.24 412.4 442.8 418.82 430.25 424.67 429.5 413.92" fill="#bcbec0"/><polygon points="233.35 129.19 266.18 366.4 433.71 411.3 400.2 160.68 233.35 129.19" fill="#a7a9ac"/><polygon points="233.35 129.19 249.43 123.83 406.23 152.64 400.2 160.68 233.35 129.19" fill="#bcbec0"/><polygon points="433.71 411.3 439.07 404.6 406.23 152.64 400.2 160.68 433.71 411.3" fill="#d1d3d4"/><path d="M249.5,366l180,47.89,4.2-2.62-176.2-47.5-8,2A.11.11,0,0,0,249.5,366Z" fill="#bcbec0"/><polygon points="249.07 365.91 249.07 376.47 430.25 424.67 429.5 413.92 249.07 365.91" fill="#d1d3d4"/><polygon points="358.44 289.36 282.91 271.95 282.06 264.94 360.4 282.91 358.44 289.36" fill="#d1d3d4"/><polygon points="253.43 210.75 277.29 399.15 228.5 589.6 242.82 600.51 328.18 282.38 305.89 277.31 287.82 350.27 270.77 216.28 253.43 210.75" fill="#bcbec0"/><polygon points="270.77 216.28 277.59 208.1 293.27 328.45 287.82 350.27 270.77 216.28" fill="#d1d3d4"/><polygon points="253.43 210.75 262.25 202.65 277.59 208.1 270.77 216.28 253.43 210.75" fill="#e6e7e8"/><polygon points="283.73 260.26 362.82 279.01 360.4 282.91 282.06 264.94 283.73 260.26" fill="#e6e7e8"/><polygon points="242.82 600.51 252.36 591.64 333.81 283.68 328.18 282.38 242.82 600.51" fill="#d1d3d4"/><polygon points="366.72 239.82 413.15 605.96 395.21 601.74 348.79 235.07 366.72 239.82" fill="#bcbec0"/><polygon points="373.6 232.66 420.27 597.95 413.15 605.96 366.72 239.82 373.6 232.66" fill="#d1d3d4"/><polygon points="348.79 235.07 358.28 227.69 373.6 232.66 366.72 239.82 348.79 235.07" fill="#e6e7e8"/><path d="M430.1,335.6s5.26-.74,8.42,2.94c0,0,6.3-3.15,4.73,2.37,0,0-2.37,4.73-7.1,2.63,0,0-3.35,1.58-5.19-1.31Z" fill="#fff" opacity="0.6"/><path d="M436.77,357.52a.9.9,0,0,0-.83-1.25,3.15,3.15,0,0,1-2.62-1.73,3.39,3.39,0,0,1,.48-3.66c1.55-1.95,4.8-5,6.56,1.07,0,0,1.69,3.88,3.92-.94a1.62,1.62,0,0,1,1.21-.93c1.13-.18,3,.18,3.79,4a5.19,5.19,0,0,1-.47,3.61c-.74,1.31-2,2.52-3.67.37a2.36,2.36,0,0,0-2.46-.93,2.15,2.15,0,0,0-1.54,2.17s-1.17,7.39-7.22,5.81l-.84-6.4A2.31,2.31,0,0,0,436.77,357.52Z" fill="#fff" opacity="0.6"/><g id="eb0c7f0c-c68b-46da-80b7-01c92d287c8e" data-name="freesvgillustration--Table--inject-157"><rect x="651.53" y="487.37" width="129.66" height="13.39" fill="#2f2e41"/><polygon points="716.36 499.07 716.36 639.43 726.33 639.43 728.63 499.07 716.36 499.07" fill="#2f2e41"/><polygon points="684.14 499.07 649.61 639.43 659.2 639.43 697.94 499.07 684.14 499.07" fill="#2f2e41"/><polygon points="753.87 498.51 789.64 639.4 780.06 639.4 740.07 498.51 753.87 498.51" fill="#2f2e41"/><path d="M781.18,500.91c0,.18-28.74.31-64.19.31s-64.22-.13-64.22-.31,28.74-.31,64.22-.31S781.18,500.74,781.18,500.91Z" fill="#2f2e41"/><path d="M781.18,500.91c0,.18-28.74.31-64.19.31s-64.22-.13-64.22-.31,28.74-.31,64.22-.31S781.18,500.74,781.18,500.91Z" fill="#231f20" opacity="0.2"/></g><g id="fe465d26-c066-4a68-8423-9f2eae50b6d8" data-name="freesvgillustration--Mobile--inject-157"><path d="M684.72,487.37l13.22-29.09,37.81,26.19,2.38,1.91v1Z" fill="#0071f2"/><path d="M693.84,444.94l-.41.88a2.17,2.17,0,0,0,0,1.73L709,484.16a2.11,2.11,0,0,0,1.19,1.19l1,.37a2.18,2.18,0,0,0,.72.12h21.58a2.13,2.13,0,0,0,2.11-1.85h0a2,2,0,0,0-.16-1.19L718.9,445a2.13,2.13,0,0,0-1.95-1.27H695.74A2.13,2.13,0,0,0,693.84,444.94Z" fill="#2f2e41"/><polygon points="695.19 444.54 711.82 482.51 734.04 482.51 717.56 444.54 695.19 444.54" fill="#231f20" opacity="0.2"/><path d="M714.76,473.9a3.28,3.28,0,1,1-2.07,4.16A3.27,3.27,0,0,1,714.76,473.9Z" fill="#0071f2"/><path d="M716,475.48l-.13.59a.15.15,0,0,0,.08.18l.11.06a.18.18,0,0,1,.12.24h0a6.26,6.26,0,0,1-.45.9s-.1.22-.26.13l-.16-.08a.17.17,0,0,0-.17,0l-.45.48a.14.14,0,0,0,0,.19l.14.15a.25.25,0,0,0,.1.08.81.81,0,0,0,.31,0,2.36,2.36,0,0,0,1.19-1.45c.44-1,.13-1.41,0-1.51a.43.43,0,0,0-.26-.15H716A.18.18,0,0,0,716,475.48Z" fill="#fff"/><path d="M723,478.78a3.3,3.3,0,1,1,4.66,0h0A3.33,3.33,0,0,1,723,478.78Z" fill="#0071f2"/><path d="M723.89,477l.59-.13a.16.16,0,0,0,.12-.15v-.13s0-.21.17-.22h1s.23,0,.23.18v.18a.14.14,0,0,0,.1.13l.63.19a.14.14,0,0,0,.17-.08h0l.08-.19a.24.24,0,0,0,0-.12.5.5,0,0,0-.12-.29,2.41,2.41,0,0,0-1.85-.49c-1.07,0-1.31.5-1.37.61a.55.55,0,0,0,0,.31v.11a.15.15,0,0,0,.19.11Z" fill="#fff"/><path d="M715,459.79a2.39,2.39,0,0,0,.74-3,4.32,4.32,0,0,0-3.92-2.87c-1.55.09-2.31,1.54-1.7,3.23a4.6,4.6,0,0,0,2.84,2.73c-4.07,1-2.1,5.73-2.1,5.73H721.8S719.52,460.16,715,459.79Z" fill="#ebebeb"/><path d="M727.12,469.8a125.48,125.48,0,0,1-17.63,0,61.88,61.88,0,0,1,8.82-.31A63.24,63.24,0,0,1,727.12,469.8Z" fill="#ebebeb"/><path d="M693.12,457.89a1.43,1.43,0,0,0,.22-.88,1.63,1.63,0,0,0-.47-.92,3.13,3.13,0,0,0-1.19-.7,5.76,5.76,0,0,1-1.72-.85,2.07,2.07,0,0,1-.7-.92,1.69,1.69,0,0,1,0-1.25c.3-.75.83-1.38.58-2s-1-1.09-1.59-1.8a1.63,1.63,0,0,1-.38-1.45,2.3,2.3,0,0,1,.84-1.13c.67-.5,1.19-1,1.06-1.56s-.75-1.2-.8-2a2.18,2.18,0,0,1,.91-1.77,3.74,3.74,0,0,1,2.68-.58,2.72,2.72,0,0,1,1,.21,4,4,0,0,1-1,0,3.53,3.53,0,0,0-2.39.68,1.71,1.71,0,0,0-.68,1.4c0,.57.59,1,.85,1.88a1.47,1.47,0,0,1-.31,1.32,5.76,5.76,0,0,1-.92.86c-.64.48-.9,1.11-.36,1.72s1.3,1,1.67,2a1.81,1.81,0,0,1-.1,1.37c-.18.4-.38.71-.52,1a1.3,1.3,0,0,0,.47,1.57,6.15,6.15,0,0,0,1.56.83,3.6,3.6,0,0,1,1.33.88,1.9,1.9,0,0,1,.44,1.19C693.58,457.73,693.11,457.93,693.12,457.89Z" fill="#2f2e41"/><path d="M690.59,459.39a2.05,2.05,0,0,0-.18-.95,3.76,3.76,0,0,0-2.12-1.52,4.19,4.19,0,0,1-1.65-1.2,2.54,2.54,0,0,1-.15-2.38,5.49,5.49,0,0,0,.54-2.21c-.08-.72-.79-1.19-1.48-1.81a2.78,2.78,0,0,1-.86-1.2,1.83,1.83,0,0,1,.19-1.48c.49-.81,1.19-1.3,1.51-1.92a2.36,2.36,0,0,0,.1-1.93,3.71,3.71,0,0,1-.08-2,3.23,3.23,0,0,1,1.88-2.13,1.54,1.54,0,0,1,1-.15,1.89,1.89,0,0,0-.93.37,3.12,3.12,0,0,0-1.56,2,3.48,3.48,0,0,0,.16,1.78,4.62,4.62,0,0,1,.2,1.11,2.08,2.08,0,0,1-.31,1.19c-.42.74-1.1,1.28-1.47,1.92a1.24,1.24,0,0,0-.14,1,2.3,2.3,0,0,0,.69.91c.33.29.68.56,1,.91a2.28,2.28,0,0,1,.65,1.29,5.62,5.62,0,0,1-.59,2.48,2,2,0,0,0,0,1.87,3.74,3.74,0,0,0,1.42,1.07,3.93,3.93,0,0,1,2.16,1.83C690.89,459,690.59,459.42,690.59,459.39Z" fill="#2f2e41"/><path d="M725,455.26c0-.06.28-.13.6-.52a2,2,0,0,0,.45-1.89,1.68,1.68,0,0,0-.82-1,4.11,4.11,0,0,1-1.43-1.19,2.88,2.88,0,0,1-.14-2.1,5,5,0,0,0,.22-1.95c-.08-.64-.51-.94-1.19-1.1a3.09,3.09,0,0,1-1-.4,1.5,1.5,0,0,1-.62-1,12.42,12.42,0,0,0-.19-1.71,2.42,2.42,0,0,0-.8-1.12,2.87,2.87,0,0,0-1.92-.67c-.51,0-.77.15-.79.09s.22-.23.76-.34a3,3,0,0,1,2.22.58,2.85,2.85,0,0,1,1,1.3,9.36,9.36,0,0,1,.26,1.75c.09.54.53.74,1.19.91a2.36,2.36,0,0,1,1,.48,1.83,1.83,0,0,1,.58,1.11,5.41,5.41,0,0,1-.25,2.15,2.48,2.48,0,0,0,0,1.7,4.06,4.06,0,0,0,1.2,1.06,2.21,2.21,0,0,1,1,1.35,2.39,2.39,0,0,1-.71,2.18A.76.76,0,0,1,725,455.26Z" fill="#2f2e41"/><path d="M727.82,455.09a5.28,5.28,0,0,0,.59-.69,3.23,3.23,0,0,0,.52-2.28,2.62,2.62,0,0,0-.63-1.44c-.37-.43-1-.74-1.44-1.45a2.9,2.9,0,0,1,0-2.38c.21-.73.35-1.48-.15-1.93a4.93,4.93,0,0,0-2.07-.69,2.94,2.94,0,0,1-1.2-.49,1.73,1.73,0,0,1-.68-1.06c-.16-.77,0-1.44-.13-2a1.77,1.77,0,0,0-.86-1.2,4.09,4.09,0,0,0-2.38-.44,2.9,2.9,0,0,1-.93,0,2.57,2.57,0,0,1,.9-.25,3.84,3.84,0,0,1,2.58.31,2.18,2.18,0,0,1,1.19,1.5c.15.67,0,1.38.18,2a1.64,1.64,0,0,0,1.41,1.09,5.15,5.15,0,0,1,2.39.83,1.76,1.76,0,0,1,.53,1.32,4.48,4.48,0,0,1-.23,1.19,2.46,2.46,0,0,0-.08,1.92c.3.51.91.87,1.35,1.4a3.05,3.05,0,0,1,.68,1.73,3.32,3.32,0,0,1-.77,2.47C728.17,455,727.83,455.11,727.82,455.09Z" fill="#2f2e41"/></g><g id="e47fb2cb-137f-4663-b01a-5de69493f7e0" data-name="freesvgillustration--speech-bubbles--inject-157"><path d="M713.81,432.24l10.89-6.06a29,29,0,1,0-7.69-7h0Z" fill="#fafafa"/><path d="M713.81,432.24c.16-.62,1.2-4.77,3.11-13.13V419l.1.09h0l-.13.12a30.38,30.38,0,0,1-3.58-6,29,29,0,0,1-2.2-8,26.17,26.17,0,0,1-.21-4.6c0-.78.07-1.58.15-2.38s.26-1.62.39-2.45a29.28,29.28,0,0,1,11.75-18A29,29,0,0,1,734.43,373a29.52,29.52,0,0,1,12.89.43,28.66,28.66,0,0,1,11.93,6.3l1.3,1.19c.43.4.79.86,1.2,1.29a11.86,11.86,0,0,1,1.13,1.33l1,1.39a12.85,12.85,0,0,1,.94,1.45l.88,1.47.74,1.54a14.58,14.58,0,0,1,.68,1.57,29.58,29.58,0,0,1,1.9,13,28.52,28.52,0,0,1-3.58,11.94,29.31,29.31,0,0,1-17,13.63,31.38,31.38,0,0,1-9.44,1.2,29.16,29.16,0,0,1-8.12-1.48,29.82,29.82,0,0,1-6.22-3h.1l-10.93,6c.53-.3,3.92-2.21,10.84-6.14h0a29.18,29.18,0,0,0,6.2,2.9,28.69,28.69,0,0,0,8.06,1.43,31.11,31.11,0,0,0,9.35-1.19,29.16,29.16,0,0,0,16.82-13.52A28.37,28.37,0,0,0,768.68,404a29.22,29.22,0,0,0-1.89-12.86,13.83,13.83,0,0,0-.66-1.53l-.73-1.53-.87-1.46a12.52,12.52,0,0,0-.93-1.43l-1-1.38a17.09,17.09,0,0,0-1.12-1.3,9.52,9.52,0,0,0-1.19-1.27L759,380.05a28.3,28.3,0,0,0-11.73-6.23,29.31,29.31,0,0,0-12.74-.44,28.44,28.44,0,0,0-11.11,4.77A29,29,0,0,0,711.73,396l-.4,2.38c-.07.8-.09,1.6-.15,2.39a26.77,26.77,0,0,0,.18,4.56,28.62,28.62,0,0,0,2.17,7.9,29.39,29.39,0,0,0,3.48,6l.41.55-.53-.42H717C715,427.47,714,431.58,713.81,432.24Z" fill="#2f2e41"/><path d="M745.35,407.27a11.84,11.84,0,0,1-11.84-11.84h0a11.75,11.75,0,0,1,1.52-5.79,11.84,11.84,0,1,0,16.09,16.11A11.92,11.92,0,0,1,745.35,407.27Z" fill="#2f2e41"/><path d="M693.19,431.23l-4.71-8.45a22.53,22.53,0,1,0-5.44,6h0Z" fill="#fafafa"/><path d="M693.19,431.23,683,428.84h-.11l.07-.08h0l.11.09a22.8,22.8,0,0,1-4.66,2.76,22.18,22.18,0,0,1-6.19,1.72,19.44,19.44,0,0,1-3.58.15l-1.86-.11-1.9-.31a22.54,22.54,0,0,1-7.57-3,22.87,22.87,0,0,1-6.45-6.14,22.38,22.38,0,0,1-3.74-8.74,22.86,22.86,0,0,1,.34-10,22.07,22.07,0,0,1,4.89-9.22l.93-1c.3-.33.66-.61,1-.92a12.39,12.39,0,0,1,1-.88l1.09-.8a8.48,8.48,0,0,1,1.19-.74l1.19-.68,1.2-.57a11.61,11.61,0,0,1,1.19-.53,23.09,23.09,0,0,1,10.11-1.48,22.26,22.26,0,0,1,9.23,2.81,22.89,22.89,0,0,1,10.6,13.23,24.51,24.51,0,0,1,.93,7.33,22.47,22.47,0,0,1-3.45,11.14h0l4.65,8.49c-.22-.42-1.71-3.05-4.77-8.43h0a22.81,22.81,0,0,0,2.24-4.77,22.23,22.23,0,0,0,1.13-6.26,24.46,24.46,0,0,0-1-7.27,22.67,22.67,0,0,0-10.51-13.13,22.09,22.09,0,0,0-9.22-2.89,23.14,23.14,0,0,0-10,1.47,9.78,9.78,0,0,0-1.19.53l-1.2.56-1.19.68a9.24,9.24,0,0,0-1.11.73l-1.07.78a12.39,12.39,0,0,0-1,.88c-.33.31-.69.58-1,.91l-.92,1a22.05,22.05,0,0,0-4.77,9.12,22.77,22.77,0,0,0-.35,9.89,22.5,22.5,0,0,0,17.53,17.7l1.89.31c.62,0,1.19.07,1.85.12a20.43,20.43,0,0,0,3.58-.14,22.48,22.48,0,0,0,6.11-1.69,23.2,23.2,0,0,0,4.67-2.73l.42-.32-.32.42h0v-.11Z" fill="#2f2e41"/><path d="M678,417.38l-2.16-2.48v-6a5.83,5.83,0,0,0-4.94-5.76v-2.49h-1.56v2.46a5.84,5.84,0,0,0-5.15,5.79v5.65L662,417.36h6a2.45,2.45,0,0,0,3.15,1.44,2.69,2.69,0,0,0,.8-.5,2.33,2.33,0,0,0,.63-.94Z" fill="#0071f2"/><rect x="647.9" y="411.47" width="44.64" height="1.19" transform="translate(-116.29 432.05) rotate(-33.04)" fill="#2f2e41"/></g></svg>